# xmcd
#
# Track frame offsets:
#	183
#	37535
#	73338
#	109240
#	187830
#	231268
#	273428
#	301948
#	316868
#
# Disc length: 4326 seconds
#
# Revision: 1
# Processed by: cddbd v1.5.1PL0 Copyright (c) Steve Scherf et al.
# Submitted via: CDex 1.50Beta5
#
DISCID=7010e409
DTITLE=dinu lipatti - Dinu Lipatti
DYEAR=1900
DGENRE=Classical
TTITLE0=lipatti/amsterdam concertgebouw/Bach konzert No.1 BWV 1052 第1楽章 allegro
TTITLE1=lipatti/amsterdam concertgebouw/第2楽章 adagio
TTITLE2=lipatti/amsterdam concertgebouw/第3楽章 allegro
TTITLE3=lipatti/tonhalle-orchester zurich/Chopin konzert No.1 第1楽章 allegro maestoso
TTITLE4=lipatti/tonhalle-orchester zurich/第2楽章 romanze(larghetto)
TTITLE5=lipatti/tonhalle-orchester zurich/第3楽章 rondo(vivace)
TTITLE6=lipatti/Chopin nocturne des-dur op.27
TTITLE7=lipatti/etude e-moll op.25
TTITLE8=lipatti/etude ges-dur op.10
EXTD=
EXTT0=
EXTT1=
EXTT2=
EXTT3=
EXTT4=
EXTT5=
EXTT6=
EXTT7=
EXTT8=
PLAYORDER=
